HIERARCHY
ROOT Hips
{
	OFFSET 0.000000 0.000000 0.000000
	CHANNELS 6 Xposition Yposition Zposition Xrotation Yrotation Zrotation
	JOINT LeftUpLeg_virtual
	{
		OFFSET 0.000000 0.000000 0.000000
		CHANNELS 3 Xrotation Yrotation Zrotation
		JOINT LeftUpLeg
		{
			OFFSET 15.427100 -6.655098 0.678600
			CHANNELS 3 Xrotation Yrotation Zrotation
			JOINT LeftLeg
			{
				OFFSET 4.081073 -39.591068 13.024000
				CHANNELS 3 Xrotation Yrotation Zrotation
				JOINT LeftFoot
				{
					OFFSET -4.081074 -37.707932 -15.979700
					CHANNELS 3 Xrotation Yrotation Zrotation
					JOINT LeftToeBase
					{
						OFFSET 5.346399 -15.068900 20.645000
						CHANNELS 3 Xrotation Yrotation Zrotation
						JOINT LeftToe_End
						{
							OFFSET 2.754700 0.931300 11.300900
							CHANNELS 3 Xrotation Yrotation Zrotation
							End Site
							{
								OFFSET 0 0 0
							}
						}
					}
				}
			}
		}
	}
	JOINT RightUpLeg_virtual
	{
		OFFSET 0.000000 0.000000 0.000000
		CHANNELS 3 Xrotation Yrotation Zrotation
		JOINT RightUpLeg
		{
			OFFSET -15.569500 -6.655098 0.678600
			CHANNELS 3 Xrotation Yrotation Zrotation
			JOINT RightLeg
			{
				OFFSET -4.081825 -39.591045 13.023800
				CHANNELS 3 Xrotation Yrotation Zrotation
				JOINT RightFoot
				{
					OFFSET 4.081824 -37.707954 -15.979600
					CHANNELS 3 Xrotation Yrotation Zrotation
					JOINT RightToeBase
					{
						OFFSET -5.346400 -15.068900 20.645000
						CHANNELS 3 Xrotation Yrotation Zrotation
						JOINT RightToe_End
						{
							OFFSET -2.754700 0.931300 11.300900
							CHANNELS 3 Xrotation Yrotation Zrotation
							End Site
							{
								OFFSET 0 0 0
							}
						}
					}
				}
			}
		}
	}
	JOINT Spine_virtual
	{
		OFFSET 0.000000 0.000000 0.000000
		CHANNELS 3 Xrotation Yrotation Zrotation
		JOINT Spine
		{
			OFFSET -0.279200 12.230698 -2.892100
			CHANNELS 3 Xrotation Yrotation Zrotation
			JOINT Spine1
			{
				OFFSET -0.232667 10.192268 -1.242267
				CHANNELS 3 Xrotation Yrotation Zrotation
				JOINT Spine1_split
				{
					OFFSET -0.232667 10.192268 -1.242267
					CHANNELS 3 Xrotation Yrotation Zrotation
					JOINT Spine2
					{
						OFFSET -0.232667 10.192268 -1.242267
						CHANNELS 3 Xrotation Yrotation Zrotation
						JOINT Neck_virtual
						{
							OFFSET 0.000000 0.000000 0.000000
							CHANNELS 3 Xrotation Yrotation Zrotation
							JOINT Neck
							{
								OFFSET -0.418800 17.814194 8.416900
								CHANNELS 3 Xrotation Yrotation Zrotation
								JOINT Head
								{
									OFFSET 0.000000 7.031097 3.806800
									CHANNELS 3 Xrotation Yrotation Zrotation
									JOINT HeadTop_End
									{
										OFFSET 0.000000 24.646606 12.978600
										CHANNELS 3 Xrotation Yrotation Zrotation
										End Site
										{
											OFFSET 0 0 0
										}
									}
								}
							}
						}
						JOINT LeftShoulder_virtual
						{
							OFFSET 0.000000 0.000000 0.000000
							CHANNELS 3 Xrotation Yrotation Zrotation
							JOINT LeftShoulder
							{
								OFFSET 8.476499 7.247704 -3.868750
								CHANNELS 3 Xrotation Yrotation Zrotation
								JOINT LeftShoulder_split
								{
									OFFSET 8.476499 7.247704 -3.868750
									CHANNELS 3 Xrotation Yrotation Zrotation
									JOINT LeftArm
									{
										OFFSET 9.308998 -2.777710 0.208600
										CHANNELS 3 Xrotation Yrotation Zrotation
										JOINT LeftForeArm
										{
											OFFSET 29.972298 0.000000 0.000000
											CHANNELS 3 Xrotation Yrotation Zrotation
											JOINT LeftHand
											{
												OFFSET 26.026505 0.000000 0.000000
												CHANNELS 3 Xrotation Yrotation Zrotation
												End Site
												{
													OFFSET 0 0 0
												}
											}
										}
									}
								}
							}
						}
						JOINT RightShoulder_virtual
						{
							OFFSET 0.000000 0.000000 0.000000
							CHANNELS 3 Xrotation Yrotation Zrotation
							JOINT RightShoulder
							{
								OFFSET -7.570500 7.247704 -3.868750
								CHANNELS 3 Xrotation Yrotation Zrotation
								JOINT RightShoulder_split
								{
									OFFSET -7.570500 7.247704 -3.868750
									CHANNELS 3 Xrotation Yrotation Zrotation
									JOINT RightArm
									{
										OFFSET -9.308998 -2.777710 0.208500
										CHANNELS 3 Xrotation Yrotation Zrotation
										JOINT RightForeArm
										{
											OFFSET -29.972300 0.000000 0.000000
											CHANNELS 3 Xrotation Yrotation Zrotation
											JOINT RightHand
											{
												OFFSET -26.026505 0.000000 0.000000
												CHANNELS 3 Xrotation Yrotation Zrotation
												End Site
												{
													OFFSET 0 0 0
												}
											}
										}
									}
								}
							}
						}
					}
				}
			}
		}
	}
}
MOTION
Frames: 8
Frame Time: 0.03333333
0.010894 90.130661 11.824951 0.000000 0.000000 0.000000 2.958738 33.391835 -2.169953 -33.796804 6.643567 6.322555 21.905731 -15.741023 -4.732255 3.474829 -12.557470 0.163379 0.158376 -0.722537 -0.124230 0.000000 0.000000 0.000000 2.923331 33.000042 -2.297186 -26.119062 13.979094 3.789254 29.658239 16.910295 -2.518253 -3.825874 2.820012 1.134519 -1.565014 0.370147 0.513342 0.000000 0.000000 0.000000 3.658326 34.189195 -2.925223 7.720532 1.289924 -0.712197 0.620875 0.716308 1.276682 0.604321 0.330411 0.567667 0.000000 0.000000 0.000000 1.184160 1.022207 1.468346 -3.580258 29.256999 -8.255773 -6.612342 24.650779 -3.263885 0.000000 0.000000 0.000000 1.309887 1.002073 1.761157 0.170036 -3.153258 -1.604147 4.701486 0.434942 -2.302749 -63.005066 18.525423 -19.211512 11.414663 -74.655976 13.462590 0.000000 0.000000 0.000000 1.313343 0.960650 1.380652 4.721365 6.535147 9.054614 -2.860693 -0.539404 0.834999 11.547132 21.308076 63.093094 10.385673 22.800094 -4.233742 0.000000 0.000000 0.000000 
-0.861570 90.376068 12.248638 0.000000 0.000000 0.000000 3.445505 38.914122 -2.900027 -34.626218 7.038307 7.316649 20.727131 -16.309614 -4.482632 4.616375 -11.524174 -0.134062 0.275536 -0.769248 0.079097 0.000000 0.000000 0.000000 3.584657 38.350419 -3.098567 -24.353415 13.373699 3.262643 28.577093 14.551638 -0.902420 -4.651511 1.427867 -0.210455 -0.542745 0.258407 0.834511 0.000000 0.000000 0.000000 4.170676 39.444537 -3.657881 7.692664 0.954300 -1.186178 0.589087 0.453750 1.300985 0.647731 0.403118 0.535260 0.000000 0.000000 0.000000 1.197493 0.769324 1.560030 -3.716847 27.465102 -8.328535 -7.578449 22.407148 -1.712956 0.000000 0.000000 0.000000 1.232615 0.746471 1.881125 0.193362 -6.379033 -0.911037 4.557177 0.397008 -2.158568 -63.108209 16.392179 -20.637459 10.681099 -72.918430 12.950092 0.000000 0.000000 0.000000 1.241076 0.695539 1.512324 4.657614 6.388930 8.723174 -3.223922 -0.388898 0.827307 10.671596 18.190851 63.548749 10.521327 23.309730 -4.439301 0.000000 0.000000 0.000000 
-1.780991 90.637596 12.278423 0.000000 0.000000 0.000000 3.967657 43.861812 -3.782420 -35.211432 7.251020 8.814404 20.051859 -15.676918 -3.979788 4.680472 -9.834183 -0.218423 0.301726 -0.787945 0.179936 0.000000 0.000000 0.000000 4.342576 43.118520 -4.066057 -22.774933 12.356892 2.769904 27.713100 12.050529 0.476111 -5.709183 0.032988 -1.139913 0.329657 0.292131 1.092065 0.000000 0.000000 0.000000 4.758321 44.127684 -4.527545 7.704429 0.736125 -1.678225 0.603224 0.272326 1.378000 0.676710 0.458561 0.557539 0.000000 0.000000 0.000000 1.245507 0.602082 1.694107 -3.980195 25.746704 -8.266903 -8.469875 20.164569 -0.216308 0.000000 0.000000 0.000000 1.191159 0.576748 2.030259 0.266422 -9.176144 -0.230262 4.252799 0.236665 -1.882776 -63.251397 14.363499 -21.941638 9.888671 -71.300591 12.402085 0.000000 0.000000 0.000000 1.174808 0.521191 1.692772 4.574489 6.349868 8.407181 -3.381953 -0.308062 0.704233 9.150684 14.206316 63.991960 10.625838 23.980123 -4.626827 0.000000 0.000000 0.000000 
-2.738021 90.862404 12.029457 0.000000 0.000000 0.000000 4.473418 48.217973 -4.712375 -35.473718 7.180568 10.719392 20.131726 -13.909564 -3.310176 3.757353 -7.615496 0.024552 0.622546 -0.764449 0.033487 0.000000 0.000000 0.000000 5.078810 47.313711 -5.102112 -21.430955 11.266762 2.468288 27.070213 9.767262 1.394470 -6.655086 -1.192578 -1.280738 0.403667 0.437751 1.193420 0.000000 0.000000 0.000000 5.304047 48.216030 -5.420222 7.765581 0.599840 -2.148532 0.660864 0.147458 1.515442 0.765708 0.475957 0.579864 0.000000 0.000000 0.000000 1.321995 0.491902 1.870426 -4.284038 24.137059 -8.093480 -9.225766 18.032709 1.143972 0.000000 0.000000 0.000000 1.182743 0.458445 2.207297 0.376186 -11.454988 0.394701 3.793244 -0.080952 -1.654682 -63.531052 12.549239 -23.182961 9.264989 -69.828780 12.019550 0.000000 0.000000 0.000000 1.118105 0.413243 1.922702 4.496881 6.398647 8.115314 -3.343031 -0.252814 0.538347 7.041078 9.523419 64.362006 10.612333 24.637884 -4.713523 0.000000 0.000000 0.000000 
-3.690136 91.041603 11.527496 0.000000 0.000000 0.000000 4.900472 51.957205 -5.561451 -35.203485 6.995410 12.797823 21.226783 -11.165313 -2.569102 2.010348 -5.014550 0.598209 1.348545 -0.660677 -0.376872 0.000000 0.000000 0.000000 5.687403 50.996941 -6.048435 -20.273540 10.249997 2.379101 26.722651 7.852155 1.808361 -7.361337 -2.339198 -0.759676 -0.374261 0.607650 1.192191 0.000000 0.000000 0.000000 5.732583 51.721942 -6.237248 7.865322 0.493079 -2.579021 0.739575 0.039211 1.702479 0.882812 0.490034 0.597875 0.000000 0.000000 0.000000 1.406865 0.394087 2.084983 -4.503665 22.695761 -7.867189 -9.811856 16.165398 2.277971 0.000000 0.000000 0.000000 1.189724 0.348782 2.395103 0.494314 -13.187395 0.885798 3.266021 -0.575551 -1.462430 -63.959913 10.994445 -24.372680 8.922128 -68.397002 11.885479 0.000000 0.000000 0.000000 1.070328 0.328874 2.189669 4.444396 6.474414 7.839239 -3.230277 -0.216099 0.247642 4.509497 4.435063 64.603850 10.411824 25.129514 -4.627808 0.000000 0.000000 0.000000 
-4.539071 91.161263 10.820713 0.000000 0.000000 0.000000 5.260749 55.227291 -6.216698 -34.308190 6.807238 14.815821 23.197358 -7.757906 -1.888301 -0.187352 -2.410329 1.314332 2.237276 -0.492202 -0.949236 0.000000 0.000000 0.000000 6.121400 54.235045 -6.808188 -19.218674 9.358099 2.396034 26.696660 6.283248 1.758258 -8.139336 -3.399343 -0.015224 -1.312036 0.756251 1.162665 0.000000 0.000000 0.000000 5.958384 54.763074 -6.818618 7.995285 0.365716 -2.948538 0.819473 -0.092136 1.929173 0.887342 0.545297 0.614384 0.000000 0.000000 0.000000 1.474125 0.266498 2.328525 -4.572671 21.458313 -7.666635 -10.207158 14.697918 3.135248 0.000000 0.000000 0.000000 1.209705 0.210509 2.583756 0.595214 -14.432130 1.184763 2.713890 -1.048431 -1.354315 -64.414134 9.723159 -25.515756 8.833969 -66.905712 11.951692 0.000000 0.000000 0.000000 1.034649 0.222056 2.482662 4.434295 6.525167 7.570071 -3.054798 -0.230282 -0.077724 1.819352 -0.713306 64.689282 10.009385 25.424363 -4.356641 0.000000 0.000000 0.000000 
-5.244181 91.233490 9.945293 0.000000 0.000000 0.000000 5.437366 58.064381 -6.579574 -32.784461 6.885852 16.657359 25.592927 -4.250985 -1.466781 -2.295434 -0.372370 1.632056 2.706354 -0.251737 -1.471620 0.000000 0.000000 0.000000 6.273855 56.921031 -7.244276 -18.270677 8.483117 2.306940 27.095791 4.919914 1.426872 -9.063855 -4.439771 0.351423 -1.861889 0.858167 1.176002 0.000000 0.000000 0.000000 5.947939 57.469362 -7.098120 8.151861 0.187433 -3.243236 0.882165 -0.260996 2.169661 0.852001 0.649993 0.552509 0.000000 0.000000 0.000000 1.497010 0.087474 2.577854 -4.449398 20.436985 -7.556801 -10.386334 13.662155 3.697762 0.000000 0.000000 0.000000 1.221970 0.017539 2.758808 0.666096 -15.276526 1.277652 2.249247 -1.422116 -1.223014 -64.785478 8.732266 -26.625039 8.902329 -65.335527 12.127308 0.000000 0.000000 0.000000 1.014927 0.067139 2.772889 4.477609 6.473257 7.285590 -2.867968 -0.292272 -0.396523 -0.719986 -5.442052 64.626109 9.484113 25.616350 -3.960582 0.000000 0.000000 0.000000 
-5.724284 91.249390 8.959679 0.000000 0.000000 0.000000 5.389398 60.455411 -6.586833 -30.957344 7.331863 18.221987 27.897327 -1.104552 -1.385338 -3.782344 0.755003 1.255088 2.632500 0.016689 -1.808576 0.000000 0.000000 0.000000 6.184151 59.138298 -7.325612 -17.581778 7.538668 1.903239 27.852321 3.809402 1.037849 -9.924212 -5.415352 0.393371 -1.916864 0.915578 1.224953 0.000000 0.000000 0.000000 5.750765 59.881170 -7.060057 8.326608 -0.034472 -3.459301 0.915974 -0.468990 2.395656 0.731197 0.702909 0.471068 0.000000 0.000000 0.000000 1.469847 -0.137822 2.811813 -4.176792 19.622005 -7.549001 -10.319211 13.045598 3.976488 0.000000 0.000000 0.000000 1.230444 -0.220146 2.905771 0.704382 -15.836260 1.191171 1.981285 -1.595132 -1.034530 -64.921617 7.999074 -27.722514 9.074723 -63.819443 12.352360 0.000000 0.000000 0.000000 1.009038 -0.136192 3.038825 4.571101 6.300152 6.989114 -2.673819 -0.385536 -0.655409 -2.859849 -9.321919 64.524790 8.935323 25.813541 -3.520283 0.000000 0.000000 0.000000 
